<svg width="14128" height="3560" viewBox="0 0 14128 3560" fill="none" xmlns="http://www.w3.org/2000/svg">
<path d="M6803.93 2905.21C6795.41 2889.08 6783.08 2876.86 6766.93 2868.57C6751.24 2859.81 6732.63 2855.43 6711.1 2855.43C6673.87 2855.43 6644.05 2868.11 6621.63 2893.46C6599.2 2918.35 6587.99 2951.77 6587.99 2993.71C6587.99 3038.42 6599.65 3073.46 6622.97 3098.81C6646.74 3123.7 6679.26 3136.14 6720.52 3136.14C6748.77 3136.14 6772.54 3128.77 6791.83 3114.02C6811.56 3099.27 6825.91 3078.07 6834.88 3050.41H6688.9V2963.29H6939.15V3073.23C6930.63 3102.73 6916.06 3130.15 6895.43 3155.5C6875.24 3180.85 6849.46 3201.37 6818.06 3217.04C6786.67 3232.71 6751.24 3240.55 6711.77 3240.55C6665.13 3240.55 6623.42 3230.18 6586.64 3209.43C6550.32 3188.23 6521.84 3158.96 6501.21 3121.62C6481.03 3084.29 6470.93 3041.65 6470.93 2993.71C6470.93 2945.78 6481.03 2903.14 6501.21 2865.8C6521.84 2828.01 6550.32 2798.74 6586.64 2777.99C6622.97 2756.79 6664.46 2746.19 6711.1 2746.19C6767.61 2746.19 6815.15 2760.25 6853.72 2788.36C6892.73 2816.48 6918.52 2855.43 6931.08 2905.21H6803.93Z" fill="white"/>
<path d="M7356.73 3037.96C7356.73 3049.03 7356.05 3060.55 7354.71 3072.53H7094.36C7096.16 3096.5 7103.56 3114.94 7116.56 3127.85C7130.02 3140.29 7146.39 3146.51 7165.67 3146.51C7194.38 3146.51 7214.33 3134.07 7225.55 3109.18H7347.98C7341.7 3134.53 7330.27 3157.35 7313.67 3177.63C7297.53 3197.91 7277.12 3213.81 7252.45 3225.34C7227.79 3236.86 7200.21 3242.62 7169.71 3242.62C7132.93 3242.62 7100.19 3234.55 7071.49 3218.42C7042.79 3202.29 7020.36 3179.24 7004.22 3149.28C6988.07 3119.32 6980 3084.29 6980 3044.19C6980 3004.08 6987.85 2969.05 7003.55 2939.09C7019.69 2909.13 7042.12 2886.08 7070.82 2869.95C7099.52 2853.82 7132.48 2845.75 7169.71 2845.75C7206.04 2845.75 7238.33 2853.59 7266.58 2869.26C7294.84 2884.93 7316.81 2907.29 7332.51 2936.33C7348.65 2965.37 7356.73 2999.24 7356.73 3037.96ZM7239 3006.85C7239 2986.57 7232.27 2970.44 7218.82 2958.45C7205.36 2946.47 7188.55 2940.47 7168.36 2940.47C7149.08 2940.47 7132.71 2946.24 7119.25 2957.76C7106.25 2969.28 7098.18 2985.65 7095.04 3006.85H7239Z" fill="white"/>
<path d="M7646.14 2847.13C7690.09 2847.13 7725.08 2861.88 7751.09 2891.38C7777.55 2920.42 7790.78 2960.53 7790.78 3011.69V3237.09H7676.41V3027.59C7676.41 3001.78 7669.91 2981.73 7656.91 2967.44C7643.9 2953.15 7626.41 2946.01 7604.43 2946.01C7582.46 2946.01 7564.97 2953.15 7551.96 2967.44C7538.95 2981.73 7532.45 3001.78 7532.45 3027.59V3237.09H7417.41V2851.28H7532.45V2902.45C7544.11 2885.39 7559.81 2872.03 7579.54 2862.35C7599.28 2852.2 7621.48 2847.13 7646.14 2847.13Z" fill="white"/>
<path d="M8164.7 3151.35H7988.44L7960.19 3237.09H7839.77L8010.64 2751.72H8143.84L8314.72 3237.09H8192.95L8164.7 3151.35ZM8135.1 3060.09L8076.57 2882.4L8018.72 3060.09H8135.1Z" fill="white"/>
<path d="M8481.76 2751.72V3237.09H8366.72V2751.72H8481.76Z" fill="white"/>
<path d="M9116.7 2751.72V3237.09H9001.67V3037.27H8822.72V3237.09H8707.69V2751.72H8822.72V2941.86H9001.67V2751.72H9116.7Z" fill="white"/>
<path d="M9553.6 3037.96C9553.6 3049.03 9552.93 3060.55 9551.58 3072.53H9291.24C9293.03 3096.5 9300.43 3114.94 9313.44 3127.85C9326.89 3140.29 9343.26 3146.51 9362.55 3146.51C9391.25 3146.51 9411.21 3134.07 9422.42 3109.18H9544.86C9538.58 3134.53 9527.14 3157.35 9510.55 3177.63C9494.4 3197.91 9474 3213.81 9449.33 3225.34C9424.66 3236.86 9397.08 3242.62 9366.58 3242.62C9329.81 3242.62 9297.07 3234.55 9268.37 3218.42C9239.66 3202.29 9217.24 3179.24 9201.09 3149.28C9184.95 3119.32 9176.88 3084.29 9176.88 3044.19C9176.88 3004.08 9184.72 2969.05 9200.42 2939.09C9216.57 2909.13 9238.99 2886.08 9267.69 2869.95C9296.4 2853.82 9329.36 2845.75 9366.58 2845.75C9402.91 2845.75 9435.2 2853.59 9463.46 2869.26C9491.71 2884.93 9513.69 2907.29 9529.39 2936.33C9545.53 2965.37 9553.6 2999.24 9553.6 3037.96ZM9435.88 3006.85C9435.88 2986.57 9429.15 2970.44 9415.69 2958.45C9402.24 2946.47 9385.42 2940.47 9365.24 2940.47C9345.95 2940.47 9329.58 2946.24 9316.13 2957.76C9303.12 2969.28 9295.05 2985.65 9291.91 3006.85H9435.88Z" fill="white"/>
<path d="M9591.42 3043.49C9591.42 3003.85 9598.59 2969.05 9612.95 2939.09C9627.75 2909.13 9647.7 2886.08 9672.82 2869.95C9697.93 2853.82 9725.96 2845.75 9756.91 2845.75C9783.37 2845.75 9806.47 2851.28 9826.2 2862.35C9846.38 2873.41 9861.85 2887.93 9872.62 2905.9V2851.28H9987.65V3237.09H9872.62V3182.47C9861.41 3200.44 9845.71 3214.96 9825.53 3226.03C9805.79 3237.09 9782.7 3242.62 9756.24 3242.62C9725.74 3242.62 9697.93 3234.55 9672.82 3218.42C9647.7 3201.83 9627.75 3178.55 9612.95 3148.59C9598.59 3118.17 9591.42 3083.14 9591.42 3043.49ZM9872.62 3044.19C9872.62 3014.69 9864.55 2991.41 9848.4 2974.35C9832.7 2957.3 9813.42 2948.77 9790.55 2948.77C9767.67 2948.77 9748.16 2957.3 9732.02 2974.35C9716.32 2990.95 9708.47 3013.99 9708.47 3043.49C9708.47 3072.99 9716.32 3096.5 9732.02 3114.02C9748.16 3131.07 9767.67 3139.6 9790.55 3139.6C9813.42 3139.6 9832.7 3131.07 9848.4 3114.02C9864.55 3096.96 9872.62 3073.69 9872.62 3044.19Z" fill="white"/>
<path d="M10185.9 2725.45V3237.09H10070.9V2725.45H10185.9Z" fill="white"/>
<path d="M10478.5 3136.83V3237.09H10420C10378.3 3237.09 10345.7 3226.72 10322.4 3205.98C10299.1 3184.77 10287.4 3150.43 10287.4 3102.96V2949.46H10241.7V2851.28H10287.4V2757.25H10402.5V2851.28H10477.8V2949.46H10402.5V3104.34C10402.5 3115.86 10405.2 3124.16 10410.6 3129.23C10415.9 3134.3 10424.9 3136.83 10437.5 3136.83H10478.5Z" fill="white"/>
<path d="M10773.3 2847.13C10816.4 2847.13 10850.9 2861.88 10876.9 2891.38C10902.9 2920.42 10915.9 2960.53 10915.9 3011.69V3237.09H10801.6V3027.59C10801.6 3001.78 10795.1 2981.73 10782.1 2967.44C10769.1 2953.15 10751.6 2946.01 10729.6 2946.01C10707.6 2946.01 10690.1 2953.15 10677.1 2967.44C10664.1 2981.73 10657.6 3001.78 10657.6 3027.59V3237.09H10542.6V2725.45H10657.6V2903.14C10669.3 2886.08 10685.2 2872.49 10705.4 2862.35C10725.6 2852.2 10748.2 2847.13 10773.3 2847.13Z" fill="white"/>
<path d="M10973 3044.19C10973 3004.08 10980.9 2969.05 10996.6 2939.09C11012.7 2909.13 11034.9 2886.08 11063.2 2869.95C11091.9 2853.82 11124.6 2845.75 11161.4 2845.75C11208.5 2845.75 11247.7 2858.43 11279.1 2883.78C11310.9 2909.13 11331.8 2944.85 11341.7 2990.95H11219.2C11208.9 2961.45 11189 2946.7 11159.4 2946.7C11138.3 2946.7 11121.5 2955.22 11108.9 2972.28C11096.3 2988.87 11090.1 3012.84 11090.1 3044.19C11090.1 3075.53 11096.3 3099.73 11108.9 3116.78C11121.5 3133.38 11138.3 3141.67 11159.4 3141.67C11189 3141.67 11208.9 3126.92 11219.2 3097.42H11341.7C11331.8 3142.6 11310.9 3178.09 11279.1 3203.9C11247.3 3229.71 11208 3242.62 11161.4 3242.62C11124.6 3242.62 11091.9 3234.55 11063.2 3218.42C11034.9 3202.29 11012.7 3179.24 10996.6 3149.28C10980.9 3119.32 10973 3084.29 10973 3044.19Z" fill="white"/>
<path d="M11380.3 3043.49C11380.3 3003.85 11387.5 2969.05 11401.8 2939.09C11416.6 2909.13 11436.6 2886.08 11461.7 2869.95C11486.8 2853.82 11514.9 2845.75 11545.8 2845.75C11572.3 2845.75 11595.4 2851.28 11615.1 2862.35C11635.3 2873.41 11650.8 2887.93 11661.5 2905.9V2851.28H11776.6V3237.09H11661.5V3182.47C11650.3 3200.44 11634.6 3214.96 11614.4 3226.03C11594.7 3237.09 11571.6 3242.62 11545.1 3242.62C11514.6 3242.62 11486.8 3234.55 11461.7 3218.42C11436.6 3201.83 11416.6 3178.55 11401.8 3148.59C11387.5 3118.17 11380.3 3083.14 11380.3 3043.49ZM11661.5 3044.19C11661.5 3014.69 11653.4 2991.41 11637.3 2974.35C11621.6 2957.3 11602.3 2948.77 11579.4 2948.77C11556.6 2948.77 11537.1 2957.3 11520.9 2974.35C11505.2 2990.95 11497.4 3013.99 11497.4 3043.49C11497.4 3072.99 11505.2 3096.5 11520.9 3114.02C11537.1 3131.07 11556.6 3139.6 11579.4 3139.6C11602.3 3139.6 11621.6 3131.07 11637.3 3114.02C11653.4 3096.96 11661.5 3073.69 11661.5 3044.19Z" fill="white"/>
<path d="M11974.8 2915.58C11988.3 2894.38 12005.1 2877.79 12025.3 2865.8C12045.5 2853.36 12067.9 2847.13 12092.5 2847.13V2972.28H12060.9C12032.2 2972.28 12010.7 2978.73 11996.3 2991.64C11982 3004.08 11974.8 3026.21 11974.8 3058.01V3237.09H11859.8V2851.28H11974.8V2915.58Z" fill="white"/>
<path d="M12501.4 3037.96C12501.4 3049.03 12500.7 3060.55 12499.4 3072.53H12239C12240.8 3096.5 12248.2 3114.94 12261.2 3127.85C12274.7 3140.29 12291 3146.51 12310.3 3146.51C12339 3146.51 12359 3134.07 12370.2 3109.18H12492.6C12486.4 3134.53 12474.9 3157.35 12458.3 3177.63C12442.2 3197.91 12421.8 3213.81 12397.1 3225.34C12372.4 3236.86 12344.9 3242.62 12314.4 3242.62C12277.6 3242.62 12244.9 3234.55 12216.1 3218.42C12187.4 3202.29 12165 3179.24 12148.9 3149.28C12132.7 3119.32 12124.7 3084.29 12124.7 3044.19C12124.7 3004.08 12132.5 2969.05 12148.2 2939.09C12164.3 2909.13 12186.8 2886.08 12215.5 2869.95C12244.2 2853.82 12277.1 2845.75 12314.4 2845.75C12350.7 2845.75 12383 2853.59 12411.2 2869.26C12439.5 2884.93 12461.5 2907.29 12477.2 2936.33C12493.3 2965.37 12501.4 2999.24 12501.4 3037.96ZM12383.7 3006.85C12383.7 2986.57 12376.9 2970.44 12363.5 2958.45C12350 2946.47 12333.2 2940.47 12313 2940.47C12293.7 2940.47 12277.4 2946.24 12263.9 2957.76C12250.9 2969.28 12242.8 2985.65 12239.7 3006.85H12383.7Z" fill="white"/>
<path d="M5985.64 2771H5795.39V2573.01C5858.81 2568.63 5985.64 2602.09 5985.64 2771Z" fill="white"/>
<path d="M5195.57 2771H5385.83V2573.01C5322.41 2568.63 5195.57 2602.09 5195.57 2771Z" fill="white"/>
<path d="M5795.39 3201.04H5985.64C5985.64 3369.94 5858.81 3403.41 5795.39 3399.02V3201.04Z" fill="white"/>
<path d="M5195.57 3201.04H5385.83V3399.02C5322.41 3403.41 5195.57 3369.94 5195.57 3201.04Z" fill="white"/>
<path d="M5963.86 3173.07C6056.91 3173.07 6132.33 3092.74 6132.33 2993.65V2985.91C6132.33 2886.82 6056.91 2806.49 5963.86 2806.49H5795.39V3173.07H5963.86Z" fill="white"/>
<path d="M5590.61 3559.88C5497.56 3559.88 5422.13 3479.55 5422.13 3380.46V3201.03H5766.34V3380.46C5766.34 3479.55 5690.91 3559.88 5597.87 3559.88H5590.61Z" fill="white"/>
<path d="M5594.24 2407.54C5499.19 2407.54 5422.13 2489.6 5422.13 2590.83V2806.49H5183.22C5088.17 2806.49 5011.12 2888.55 5011.12 2989.78C5011.12 3091.01 5088.17 3173.07 5183.22 3173.07H5422.13V3173.19H5766.34V2590.83C5766.34 2489.6 5689.29 2407.54 5594.24 2407.54Z" fill="white"/>
<path d="M1015.04 3053.62V2996.22H1147.34C1165.54 2996.22 1181.64 2992.48 1195.64 2985.02C1210.1 2977.55 1221.3 2967.05 1229.24 2953.52C1237.64 2939.98 1241.84 2923.88 1241.84 2905.22C1241.84 2886.55 1237.64 2870.45 1229.24 2856.92C1221.3 2843.38 1210.1 2832.88 1195.64 2825.42C1181.64 2817.95 1165.54 2814.22 1147.34 2814.22H1015.04V2756.82H1151.54C1181.4 2756.82 1208 2762.88 1231.34 2775.02C1255.14 2787.15 1273.8 2804.42 1287.34 2826.82C1301.34 2848.75 1308.34 2874.88 1308.34 2905.22C1308.34 2935.08 1301.34 2961.22 1287.34 2983.62C1273.8 3005.55 1255.14 3022.82 1231.34 3035.42C1208 3047.55 1181.4 3053.62 1151.54 3053.62H1015.04ZM970.935 3242.62V2756.82H1036.74V3242.62H970.935ZM1517.01 3249.62C1484.34 3249.62 1454.94 3241.92 1428.81 3226.52C1402.67 3211.12 1381.91 3190.35 1366.51 3164.22C1351.11 3137.62 1343.41 3107.98 1343.41 3075.32C1343.41 3043.12 1351.11 3014.18 1366.51 2988.52C1381.91 2962.38 1402.67 2941.62 1428.81 2926.22C1454.94 2910.82 1484.34 2903.12 1517.01 2903.12C1549.21 2903.12 1578.37 2910.82 1604.51 2926.22C1631.11 2941.15 1652.11 2961.68 1667.51 2987.82C1682.91 3013.95 1690.61 3043.12 1690.61 3075.32C1690.61 3107.98 1682.91 3137.62 1667.51 3164.22C1652.11 3190.35 1631.11 3211.12 1604.51 3226.52C1578.37 3241.92 1549.21 3249.62 1517.01 3249.62ZM1517.01 3188.72C1538.01 3188.72 1556.67 3183.82 1573.01 3174.02C1589.34 3164.22 1602.17 3150.92 1611.51 3134.12C1620.84 3116.85 1625.51 3097.25 1625.51 3075.32C1625.51 3053.85 1620.61 3034.72 1610.81 3017.92C1601.47 3001.12 1588.64 2988.05 1572.31 2978.72C1556.44 2968.92 1538.01 2964.02 1517.01 2964.02C1496.01 2964.02 1477.34 2968.92 1461.01 2978.72C1444.67 2988.05 1431.84 3001.12 1422.51 3017.92C1413.17 3034.72 1408.51 3053.85 1408.51 3075.32C1408.51 3097.25 1413.17 3116.85 1422.51 3134.12C1431.84 3150.92 1444.67 3164.22 1461.01 3174.02C1477.34 3183.82 1496.01 3188.72 1517.01 3188.72ZM1847.22 3242.62L1715.62 2910.12H1781.42L1876.62 3169.12H1855.62L1950.12 2910.12H1986.52L2081.02 3169.12H2060.02L2155.22 2910.12H2221.02L2090.12 3242.62H2053.02L1957.12 2991.32H1980.22L1883.62 3242.62H1847.22ZM2421.45 3249.62C2388.32 3249.62 2358.45 3242.15 2331.85 3227.22C2305.25 3211.82 2284.25 3191.05 2268.85 3164.92C2253.45 3138.78 2245.75 3109.15 2245.75 3076.02C2245.75 3043.35 2253.22 3013.95 2268.15 2987.82C2283.55 2961.68 2304.08 2941.15 2329.75 2926.22C2355.88 2910.82 2385.05 2903.12 2417.25 2903.12C2448.05 2903.12 2475.12 2910.12 2498.45 2924.12C2522.25 2938.12 2540.68 2957.48 2553.75 2982.22C2567.28 3006.95 2574.05 3034.95 2574.05 3066.22C2574.05 3070.88 2573.82 3076.02 2573.35 3081.62C2572.88 3086.75 2571.95 3092.82 2570.55 3099.82H2289.85V3047.32H2536.95L2513.85 3067.62C2513.85 3045.22 2509.88 3026.32 2501.95 3010.92C2494.02 2995.05 2482.82 2982.92 2468.35 2974.52C2453.88 2965.65 2436.38 2961.22 2415.85 2961.22C2394.38 2961.22 2375.48 2965.88 2359.15 2975.22C2342.82 2984.55 2330.22 2997.62 2321.35 3014.42C2312.48 3031.22 2308.05 3051.05 2308.05 3073.92C2308.05 3097.25 2312.72 3117.78 2322.05 3135.52C2331.38 3152.78 2344.68 3166.32 2361.95 3176.12C2379.22 3185.45 2399.05 3190.12 2421.45 3190.12C2440.12 3190.12 2457.15 3186.85 2472.55 3180.32C2488.42 3173.78 2501.95 3163.98 2513.15 3150.92L2553.75 3192.22C2537.88 3210.88 2518.28 3225.12 2494.95 3234.92C2472.08 3244.72 2447.58 3249.62 2421.45 3249.62ZM2642.74 3242.62V2910.12H2705.74V3242.62H2642.74ZM2705.74 3052.92L2681.94 3042.42C2681.94 2999.95 2691.74 2966.12 2711.34 2940.92C2730.94 2915.72 2759.18 2903.12 2796.04 2903.12C2812.84 2903.12 2828.01 2906.15 2841.54 2912.22C2855.08 2917.82 2867.68 2927.38 2879.34 2940.92L2838.04 2983.62C2831.04 2976.15 2823.34 2970.78 2814.94 2967.52C2806.54 2964.25 2796.74 2962.62 2785.54 2962.62C2762.21 2962.62 2743.08 2970.08 2728.14 2985.02C2713.21 2999.95 2705.74 3022.58 2705.74 3052.92ZM3066.76 3249.62C3033.63 3249.62 3003.76 3242.15 2977.16 3227.22C2950.56 3211.82 2929.56 3191.05 2914.16 3164.92C2898.76 3138.78 2891.06 3109.15 2891.06 3076.02C2891.06 3043.35 2898.53 3013.95 2913.46 2987.82C2928.86 2961.68 2949.4 2941.15 2975.06 2926.22C3001.2 2910.82 3030.36 2903.12 3062.56 2903.12C3093.36 2903.12 3120.43 2910.12 3143.76 2924.12C3167.56 2938.12 3186 2957.48 3199.06 2982.22C3212.6 3006.95 3219.36 3034.95 3219.36 3066.22C3219.36 3070.88 3219.13 3076.02 3218.66 3081.62C3218.2 3086.75 3217.26 3092.82 3215.86 3099.82H2935.16V3047.32H3182.26L3159.16 3067.62C3159.16 3045.22 3155.2 3026.32 3147.26 3010.92C3139.33 2995.05 3128.13 2982.92 3113.66 2974.52C3099.2 2965.65 3081.7 2961.22 3061.16 2961.22C3039.7 2961.22 3020.8 2965.88 3004.46 2975.22C2988.13 2984.55 2975.53 2997.62 2966.66 3014.42C2957.8 3031.22 2953.36 3051.05 2953.36 3073.92C2953.36 3097.25 2958.03 3117.78 2967.36 3135.52C2976.7 3152.78 2990 3166.32 3007.26 3176.12C3024.53 3185.45 3044.36 3190.12 3066.76 3190.12C3085.43 3190.12 3102.46 3186.85 3117.86 3180.32C3133.73 3173.78 3147.26 3163.98 3158.46 3150.92L3199.06 3192.22C3183.2 3210.88 3163.6 3225.12 3140.26 3234.92C3117.4 3244.72 3092.9 3249.62 3066.76 3249.62ZM3428.76 3249.62C3397.96 3249.62 3370.42 3242.15 3346.16 3227.22C3321.89 3211.82 3302.52 3191.05 3288.06 3164.92C3274.06 3138.78 3267.06 3109.38 3267.06 3076.72C3267.06 3044.05 3274.06 3014.65 3288.06 2988.52C3302.52 2962.38 3321.89 2941.62 3346.16 2926.22C3370.42 2910.82 3397.96 2903.12 3428.76 2903.12C3453.49 2903.12 3475.89 2908.48 3495.96 2919.22C3516.02 2929.48 3532.12 2943.95 3544.26 2962.62C3556.86 2980.82 3563.86 3002.05 3565.26 3026.32V3126.42C3563.86 3150.22 3557.09 3171.45 3544.96 3190.12C3532.82 3208.78 3516.72 3223.48 3496.66 3234.22C3476.59 3244.48 3453.96 3249.62 3428.76 3249.62ZM3439.26 3190.12C3460.26 3190.12 3478.46 3185.22 3493.86 3175.42C3509.72 3165.62 3522.09 3152.32 3530.96 3135.52C3539.82 3118.25 3544.26 3098.65 3544.26 3076.72C3544.26 3053.85 3539.59 3034.02 3530.26 3017.22C3521.39 3000.42 3509.02 2987.12 3493.16 2977.32C3477.76 2967.52 3459.56 2962.62 3438.56 2962.62C3417.56 2962.62 3399.12 2967.52 3383.26 2977.32C3367.39 2987.12 3354.79 3000.65 3345.46 3017.92C3336.59 3034.72 3332.16 3054.08 3332.16 3076.02C3332.16 3098.42 3336.59 3118.25 3345.46 3135.52C3354.79 3152.32 3367.39 3165.62 3383.26 3175.42C3399.59 3185.22 3418.26 3190.12 3439.26 3190.12ZM3603.76 3242.62H3540.06V3153.02L3551.96 3071.82L3540.06 2991.32V2742.82H3603.76V3242.62ZM3896.38 3242.62V3185.22H4043.38C4071.38 3185.22 4093.32 3177.05 4109.18 3160.72C4125.05 3143.92 4132.98 3123.85 4132.98 3100.52C4132.98 3084.65 4129.48 3070.42 4122.48 3057.82C4115.48 3044.75 4105.22 3034.48 4091.68 3027.02C4078.62 3019.55 4063.22 3015.82 4045.48 3015.82H3896.38V2958.42H4035.68C4059.02 2958.42 4077.45 2952.35 4090.98 2940.22C4104.98 2927.62 4111.98 2909.65 4111.98 2886.32C4111.98 2862.98 4104.75 2845.25 4090.28 2833.12C4075.82 2820.52 4056.68 2814.22 4032.88 2814.22H3896.38V2756.82H4034.28C4066.02 2756.82 4092.38 2762.65 4113.38 2774.32C4134.85 2785.52 4150.95 2800.45 4161.68 2819.12C4172.88 2837.78 4178.48 2858.32 4178.48 2880.72C4178.48 2906.85 4171.25 2929.72 4156.78 2949.32C4142.78 2968.92 4122.02 2984.32 4094.48 2995.52L4100.08 2974.52C4131.35 2985.72 4155.62 3002.75 4172.88 3025.62C4190.62 3048.02 4199.48 3074.62 4199.48 3105.42C4199.48 3131.08 4193.18 3154.18 4180.58 3174.72C4167.98 3195.25 4149.78 3211.82 4125.98 3224.42C4102.65 3236.55 4073.95 3242.62 4039.88 3242.62H3896.38ZM3852.28 3242.62V2756.82H3918.08V3242.62H3852.28ZM4386.42 3245.42L4242.22 2910.12H4312.22L4419.32 3172.62H4396.92L4509.62 2910.12H4579.62L4424.22 3245.42H4386.42ZM4291.22 3381.92L4389.22 3181.02L4424.22 3245.42L4361.22 3381.92H4291.22Z" fill="white"/>
<path fill-rule="evenodd" clip-rule="evenodd" d="M11521.5 1132.21L12162.7 2003.95H11814.7L11225.3 1172.7C11209.4 1173.59 11193.4 1174.32 11177.2 1174.87C11150.7 1175.77 11123.4 1176.22 11095.3 1176.22H10404.5V2003.95H10128.6V17.335H11095.3C11237.4 17.335 11361.1 28.4984 11465.7 51.5643C11569.9 73.6993 11658.5 108.446 11729.1 157.547C11800.6 205.816 11854.2 281.292 11887.9 356.109C11921 429.477 11936.6 513.338 11936.6 606.35C11936.6 751.482 11897.8 873.799 11815.2 967.699L11815.1 967.808L11815 967.917C11746.7 1044.71 11647.1 1098.3 11521.5 1132.21ZM11621.2 445.733L11621.1 445.547C11600.5 409.505 11566 379.25 11512.5 356.545C11457.5 333.247 11382 316.456 11283.9 307.936L11283.6 307.914L11283.3 307.889C11185.2 298.441 11063.6 293.631 10918 293.631H10404.5V899.923H10912.6C11058.3 899.923 11180.7 895.991 11280.1 888.236C11378.1 879.716 11454.2 863.367 11510.4 840.734C11510.4 840.734 11600 801.885 11620.2 767.722L11620.3 767.589C11620.3 767.589 11620.3 767.508 11620.3 767.456C11653.4 712.18 11655.4 678.772 11655.4 606.35C11655.4 534.701 11642.5 482.526 11621.3 445.918L11621.2 445.733Z" fill="white"/>
<path d="M9903 1338.8C9903 1438.15 9881.45 1530.1 9837.67 1613.69C9794.53 1696.88 9729.81 1767.6 9645.26 1826.15L9645.21 1826.19L9645.16 1826.22C9561.18 1884.09 9457.54 1927.71 9335.74 1958.25C9213.21 1988.97 9071.98 2003.95 8912.68 2003.95C8753.38 2003.95 8612.16 1988.97 8489.63 1958.25C8367.84 1927.71 8263.86 1884.12 8179.08 1826.38L8178.92 1826.27L8178.75 1826.15C8094.25 1767.64 8029.18 1697.02 7985.17 1614.03L7985 1613.71L7984.83 1613.38C7942.04 1529.84 7921.01 1438.01 7921.01 1338.8V27.7373H8194.25V1317.93C8194.25 1369.88 8207.8 1419.28 8235.71 1466.91C8264.25 1513.21 8307.16 1555.44 8366.58 1592.93C8425.8 1630.3 8500.69 1660.98 8592.43 1684.06C8682.94 1706.83 8789.5 1718.58 8912.68 1718.58C9034.93 1718.58 9141.04 1706.84 9231.58 1684.06C9323.32 1660.98 9398.21 1630.3 9457.43 1592.93C9516.95 1555.38 9559.31 1513.16 9586.88 1467.02L9586.95 1466.91L9587.01 1466.8C9615.84 1419.1 9629.76 1369.74 9629.76 1317.93V27.7373H9903V1338.8Z" fill="white"/>
<path d="M7727.77 1799.4C7662.69 1826.48 7598.06 1851.31 7533.88 1873.88C7470.6 1896.46 7404.61 1915.87 7335.92 1932.12C7267.22 1948.37 7194.9 1961.01 7118.97 1970.04C7043.04 1979.07 6960.33 1983.58 6870.84 1983.58C6760.57 1983.58 6654.35 1974.55 6552.21 1956.5C6450.97 1938.44 6356.51 1911.35 6268.83 1875.24C6181.15 1839.12 6101.6 1794.43 6030.19 1741.16C5958.78 1686.99 5897.31 1624.24 5845.79 1552.91C5795.17 1481.58 5755.85 1401.23 5727.83 1311.84C5700.71 1222.46 5687.15 1124.5 5687.15 1017.96C5687.15 911.417 5700.71 813.455 5727.83 724.07C5755.85 634.686 5795.17 554.33 5845.79 483.002C5897.31 411.675 5958.78 349.377 6030.19 296.107C6101.6 241.934 6181.15 196.79 6268.83 160.675C6356.51 124.56 6450.97 97.4739 6552.21 79.4164C6653.45 61.3588 6759.66 52.3301 6870.84 52.3301C6960.33 52.3301 7043.04 56.8445 7118.97 65.8732C7194.9 74.902 7267.22 87.5423 7335.92 103.794C7404.61 120.046 7470.6 139.458 7533.88 162.03C7598.06 183.699 7662.69 208.076 7727.77 235.163V438.31C7676.24 405.806 7621.11 375.109 7562.35 346.216C7503.59 317.324 7439.87 292.044 7371.17 270.375C7303.37 248.706 7230.61 231.551 7152.87 218.911C7075.13 206.271 6991.97 199.95 6903.39 199.95C6724.41 199.95 6569.38 219.362 6438.32 258.186C6307.25 297.01 6198.77 352.085 6112.9 423.412C6027.93 493.837 5964.66 579.61 5923.08 680.732C5882.4 780.952 5862.06 893.36 5862.06 1017.96C5862.06 1142.55 5882.4 1254.96 5923.08 1355.18C5964.66 1455.4 6027.93 1541.17 6112.9 1612.5C6198.77 1682.93 6307.25 1737.55 6438.32 1776.37C6569.38 1814.29 6724.41 1833.25 6903.39 1833.25C6991.97 1833.25 7075.58 1826.93 7154.23 1814.29C7233.77 1801.65 7307.89 1784.5 7376.59 1762.83C7446.2 1741.16 7509.92 1716.33 7567.77 1688.34C7626.53 1659.45 7679.86 1629.2 7727.77 1597.6V1799.4Z" fill="white"/>
<path d="M7778.7 1805.53L7746.65 1818.66C7680.71 1845.68 7615.18 1870.46 7550.06 1893.01C7484.92 1915.88 7417.13 1935.5 7346.7 1951.9C7275.91 1968.39 7201.62 1981.16 7123.87 1990.26C7045.58 1999.42 6960.77 2003.95 6869.55 2003.95C6756.39 2003.95 6647.12 1994.83 6541.78 1976.5L6541.7 1976.49C6437.08 1958.12 6338.99 1930.48 6247.57 1893.41C6156.11 1856.32 6072.71 1810.25 5997.58 1755.08L5997.41 1754.96L5997.25 1754.83C5921.8 1698.49 5856.68 1633.08 5802.08 1558.66L5801.95 1558.49L5801.83 1558.31C5747.83 1483.41 5706.17 1399.4 5676.63 1306.64L5676.56 1306.42L5676.49 1306.19C5647.69 1212.74 5633.57 1111.21 5633.57 1001.98C5633.57 892.739 5647.69 791.208 5676.49 697.761L5676.56 697.536L5676.63 697.31C5706.17 604.553 5747.83 520.541 5801.83 445.64L5801.95 445.465L5802.08 445.291C5856.71 370.845 5921.87 305.829 5997.41 250.33C6072.57 194.225 6156.03 147.665 6247.57 110.545C6338.99 73.4777 6437.08 45.8371 6541.7 27.467C6646.21 9.11591 6755.52 0 6869.55 0C6960.77 0 7045.58 4.52867 7123.87 13.6938C7201.62 22.7951 7275.91 35.5649 7346.7 52.0507C7417.03 68.4301 7484.74 88.0209 7549.79 110.848C7615.02 132.54 7680.64 156.914 7746.65 183.959L7778.7 197.088V548.047L7698.81 498.437C7648.94 467.467 7595.41 438.115 7538.17 410.407C7481.99 383.21 7420.72 359.253 7354.28 338.621L7354.18 338.591L7354.09 338.561C7288.98 318.074 7218.73 301.741 7143.25 289.66C7068.59 277.708 6988.23 271.656 6902.09 271.656C6726.64 271.656 6576.81 290.414 6451.75 326.883C6325.94 363.566 6234.57 391.036 6155.18 455.95L6155.14 455.985C6076.68 519.999 6018.56 597.587 5980.24 689.284C5942.46 780.967 5923.07 884.943 5923.07 1001.98C5923.07 1118.98 5942.45 1222.93 5980.21 1314.6C6018.49 1405.34 6076.59 1483 6155.16 1547.98C6234.52 1612 6325.86 1642.42 6451.59 1679.1C6576.74 1714.73 6726.63 1733.04 6902.09 1733.04C6988.23 1733.04 7069.07 1726.99 7144.7 1715.03L7144.75 1715.02L7144.8 1715.01C7222.11 1702.92 7293.71 1686.57 7359.7 1666.08L7359.79 1666.05L7359.89 1666.02C7427.3 1645.36 7488.55 1621.84 7543.76 1595.55C7600.76 1567.95 7652.11 1539.24 7697.92 1509.49L7778.7 1457.05V1805.53Z" fill="white"/>
<path d="M0 29.4708V2003.95L281.158 2002.22V442.049L1831 2002.22H2067.03V27.7373H1791.08L1780.67 1544.57L260.331 29.4708H0Z" fill="white"/>
<path d="M3927.61 27.6777L2252.73 27.732V2003.95H3967.45L4200.02 1742.52H2530.13V1102.7H3811.3L3809.57 971.982L3806.1 837.826H2530.13V294.324H4135.87L3927.61 27.6777Z" fill="white"/>
<path d="M12844.7 27.7373L11839.9 2005.69H12181.8L12983.6 367.508L13801 2002.22H14127.3L13122.4 27.7373H12844.7Z" fill="white"/>
<path d="M5528.22 27.7373H5963.67L5130.61 948.238L6045.24 2003.95H5571.44L4717.2 976.016L5528.22 27.7373Z" fill="white"/>
<path d="M4324.79 27.7373H3889.34L4722.4 948.238L3807.77 2003.95H4281.58L5128.52 948.238L4324.79 27.7373Z" fill="white"/>
</svg>
